<mxfile host="app.diagrams.net" modified="2023-07-01T11:57:37.963Z" agent="Mozilla/5.0 (Windows NT 10.0; Win64; x64) AppleWebKit/537.36 (KHTML, like Gecko) Chrome/114.0.0.0 Safari/537.36" etag="6pgrcTKwMZDK3dE3cIRj" version="21.5.2" type="github">
  <diagram id="prtHgNgQTEPvFCAcTncT" name="Page-1">
    <mxGraphModel dx="1313" dy="1773" grid="1" gridSize="10" guides="1" tooltips="1" connect="1" arrows="1" fold="1" page="1" pageScale="1" pageWidth="827" pageHeight="1169" math="0" shadow="0">
      <root>
        <mxCell id="0" />
        <mxCell id="1" parent="0" />
        <mxCell id="CNqWCXkzFUm2wQk2d3Os-2" value="" style="rounded=1;whiteSpace=wrap;html=1;" vertex="1" parent="1">
          <mxGeometry x="20" y="-650" width="700" height="450" as="geometry" />
        </mxCell>
        <mxCell id="CNqWCXkzFUm2wQk2d3Os-5" value="" style="edgeStyle=orthogonalEdgeStyle;rounded=0;orthogonalLoop=1;jettySize=auto;html=1;" edge="1" parent="1">
          <mxGeometry relative="1" as="geometry">
            <mxPoint x="480" y="-599.38" as="sourcePoint" />
            <mxPoint x="555" y="-599.38" as="targetPoint" />
          </mxGeometry>
        </mxCell>
        <mxCell id="CNqWCXkzFUm2wQk2d3Os-6" value="" style="shape=image;verticalLabelPosition=bottom;labelBackgroundColor=default;verticalAlign=top;aspect=fixed;imageAspect=0;image=data:image/png,iVBORw0KGgoAAAANSUhEUgAAAIcAAACHCAMAAAALObo4AAAAdVBMVEX////RRCTRQiD67+3TUTfwzsnPNgjknpXPOhL89vXQQB3UVD7OMgDYZ1L++vnUWUTMGwD24t/ZbFnSSCrqs67XYVL46OXlo5nNJQDy1NDsvrjVW0nnrKTWX0nrurLLDQDcfm/gkYXacmHbeGjehXfvx8LjmI3j5mN1AAAElUlEQVR4nO2b65aqIBSAAy8hoWk2hI5pN3v/RzzYxRJ0Ao2cc47f6k8zLvsWGzYX3bPZxMTExMSVIHKCkQ2sqNyslmDpjSgR5fujzZiLIfZH8eBxWJ/ighGEIaj4uEdgUWdzWMaIoKsBGMEjys/HBani8OzwSQ/K42A/xUHEvEcVh+N3FQfcavAJD5qfdzwOBHe0gnkP6uR7O+yOg3kPjybZ8dt+EQezHlZ53m2Jeiu834Mm+X5bhD0Mbh6r4Q7BeqcdB4nY1+OwoaKHFSMpL/VoEU0ISUUPe7gFAFATAMLcgEe80IP/JrStt3tA3/J0CEoEgBCZd3hoj1uHe7ibX+Ixnzwmj8njV3m88PqUR1kU7mEdje6RMAARiVfJaB58s3lKKw8OxOzUHiDDHtGc8WUlm88idvsPClubxKiHdwKkuhefwGoPAF1xwWPaw4nd650aHlzE+ajHnN3v0/QAoJDWouY8gozU37gHffbAK+m0yJTHIX9oSB6A5e/wuK1rfyRGT18kD2iLo1fdA2KEXEKIi2PbtoFL1Pc3koe4FNXwgLG/O82zNHWSiFIalZtFqGoie6BjTw98ECPKk9SKyBd2eQiXFn09WjesZ7evBxOmvGEes71Si1QeqPknsYMM9JjZKn3k0j9Ig7C5VxnsUSL52jYPL1tfyPknz9M0F2a7oR6zhULSEzZqbeh60CIsCrJ79DKVrorOtEnUO6/XHiH/AhGqp0yHyRfLxE1caaLr5cG/1omZKnkIhx1v8wCkvF/d4/gKLponHUM8Nj9d/QIsZvX+Hmg/wAM1f3CIh1t7AH2PUApL/7hkt6vFiUMBvJU0+rfHfeAmSuOlgbT46O+Bvu5Xb9rb44cFm7T26O0BiV0n1K/WcQuXnRMghPJqvVdeDwu0rzta0j7P4VXZ1W+Klt1Lj3nOa04NfoeHzztOW4tAIi3V+3k0KTt6abWPKmPZEaO2TeVgj6irO172ldGWNf8NCeg6ARnkkeCuznjb7+dLVj/AgZjZWctNhnuk3Y9o7ucOnnOw8WUhiOxV+sPZVH8P58i6c8TTOYyXpOtsnTpyLh/iETgJx0n3qHU4tHiooZ/HqnWM8DR/FA/wepP9GQ8VJg/RQ0/DlAeIVyosqWmP6tTm9SeMTHuowf4bD0hUKEx7wMVahcwy7IF9zff6VD3gsnQSSq1IbZtg7rkYJowxAhV3kaafz6m+GPJ7nxOO5WGon2oCt5ESgWEP6USsHaKdx7RReidIP6+b4f/xwKEK+vOcJtC3AgUeSeafz2OTx+QxefxtHtD3VPJYzcXDwHufACz1WEAAY2rAo8d7wcJp4ns8dN+Tdtl6ZsAj/tLkLJ3wvme86A2XNizQUlij7TG8riBI998LSFyVJ/cmPSqsJJ0fWMjcntUF76338JzNyUdj1ns8uVjR+vRlY+KOV//yoIqTz0KCFONktj7KKjenrVKczNeL8Thlp+9XcfpU/RyP03kbdtcLfbae0Crnu63bFqfP13l6VpLtqjg1evBI9aZSXddYHlcedW7jelRc6/7i7dgeV2gycn32xMTExJj8AY3wkCN0uCtoAAAAAElFTkSuQmCC;" vertex="1" parent="1">
          <mxGeometry x="400" y="-636" width="70" height="70" as="geometry" />
        </mxCell>
        <mxCell id="CNqWCXkzFUm2wQk2d3Os-8" value="" style="shape=image;verticalLabelPosition=bottom;labelBackgroundColor=default;verticalAlign=top;aspect=fixed;imageAspect=0;image=https://www.svgrepo.com/show/60828/team.svg;" vertex="1" parent="1">
          <mxGeometry x="570" y="-636" width="74" height="74" as="geometry" />
        </mxCell>
        <mxCell id="CNqWCXkzFUm2wQk2d3Os-9" value="Weekly Powerpoint" style="text;html=1;strokeColor=none;fillColor=none;align=center;verticalAlign=middle;whiteSpace=wrap;rounded=0;" vertex="1" parent="1">
          <mxGeometry x="410" y="-566" width="60" height="30" as="geometry" />
        </mxCell>
        <mxCell id="CNqWCXkzFUm2wQk2d3Os-17" value="" style="edgeStyle=orthogonalEdgeStyle;rounded=0;orthogonalLoop=1;jettySize=auto;html=1;" edge="1" parent="1">
          <mxGeometry relative="1" as="geometry">
            <mxPoint x="607" y="-520" as="sourcePoint" />
            <mxPoint x="607" y="-440" as="targetPoint" />
          </mxGeometry>
        </mxCell>
        <mxCell id="CNqWCXkzFUm2wQk2d3Os-10" value="Interne Teambeprechung" style="text;html=1;strokeColor=none;fillColor=none;align=center;verticalAlign=middle;whiteSpace=wrap;rounded=0;" vertex="1" parent="1">
          <mxGeometry x="577" y="-562" width="60" height="30" as="geometry" />
        </mxCell>
        <mxCell id="CNqWCXkzFUm2wQk2d3Os-16" value="" style="shape=image;verticalLabelPosition=bottom;labelBackgroundColor=default;verticalAlign=top;aspect=fixed;imageAspect=0;image=data:image/webp,UklGRkIZAABXRUJQVlA4IDYZAADQjwCdASrCAZUBPlEok0Wjor+SqQyZ+AUEtLd+J5yL5V9PNfKm6B78Zf1j+ufr938/0/+2fuB/Y/fXypeQ/WflMxLPiP2A/Sf2H91fZr/feA/x5/xPUF/Ev5h/ef7Z+0n9u/cPjg9k/3P+o9QL2k+i/43/AfjN6bP9H6HfaD/X+4B+u3+y+3fnPqAX8w/tv/e/uv4n/TH/L/+H/B/6n0ufm/+K/7f+N/zHyHfyf+tf8f+8f5X3yPYZ+0X/490T9bf/4PKhkHG1DqZUMg42odTKhkHG1DqZUMg42odTKhkHG1DqZUMf1mCJLFvguplQyDjah0z99sV1w/vFbgJiTsobWSlfuCvax/CezcMLzhcPBxtQ6mRlf+LcdUcq6tbezNpXfD+C4Kgr2whsj45ydJvhV4b9NF1MqGP0p3AcrPhotMiPNg2ICtS0YYOWGa/No3/2kXccwRnP9s9T4IJGDcs7gXShP5Z9LV8Qevn4S6VgkvhY2Gd/YQTPyUQw3JSrsUuD1t5BccWYgvtnqd454JExeRE7qNyw74ClDeIl01JNCi84blnKJQEFJALvQhg9l3UoyPeOwkcjUP4bJhkHG1A5JMTKUG+dn7uJkinayrnOWf9mANr51TcDwVF1LDo//6pZyU6gH00zpXudjhpVlIPsyNE2YK1imwXoXOThTKbnjS3uP/Nsjah1LQtoHlH/9D/8YhkLj/63GENIQdanKvu9PNEtfBa25pa4cdfZp6nvHADHuwViP1RoXVW/vzFRdTKhkGec7Z4sYMKyUpSaEcARcFRGgNFXhvRkvMDxTJRHE2N3FF7B5wwjPtsFRdTIwFhcxFqxEHu79KyMEnorUOPLz9CdM/houx3ynnmpEYxVPIGTnRrsy8OeGVd4DG55/+69zd6+33OrMzQ2Pk+2j7dAs7ga2eupCHS9mKF8iZTXQfllak1PMUAzwiTN71mRqJGZSrevjsU58GfDDa/moDUWX2qNv4eSk0aU0GUeYXS6MdMi+50N6nIIivsDRyjtj6lla/9EJ4kcrjKxBwEBdTJaG71dwrrefjfMMz9G+hwGmJO34sYB0RHBtvrg4kx7IZWd5Lq3Pxe77/FnpBtGlsMu/hiiXKpUUItpSeQ5TQmm2UoS1NHXZF/weOSyEIjlWJNzC/OfU4wKTI9P94l4A8KV6VEBOPiQS1vxPBVfBUQ93HJTiDbnt8O3P9+kuKHHCC3m9Ofiv2nVgESzDtkfHpsfVYe2iQG1V/qZUMTVU8yaObX8iACHXP6zvLYPnck3QMITg1FU+Cot9CQThQaWcA6MZ1Zo7P2L4LKZv61cb6/FCa7BcEPQ2VQeUaJkqI7uITNFOoAlOB7TPQ2GHi3i2ais4yyfQCji07/ptma4yIL7ZoBaFJLgpIQwnq9aIlGLctb2MY0xVlDMqOGfqHTKq+8o0jZFzxDCJSUvJ+yoZBxtQ6mUxqj+69CCt7t8ST0YnZLYPS8e0qi+C6mVDIONqHUyoZBxtQ6mVDIONqHUyoZBxtQ6mVDIONqHUyoZBxtQ6mVDIONqHSwAAP77gwAAiUGtof2wSYtwU5Urb/baNtU8z30buuDo17KjN/3hmqPZ9E5KtaT2OL+k+jn0ZUlMd9yulqffsn5vMDLZmgx5WohtxWGQMT5DtpDp2UPgk+sgkC7T/2oe7cqk/ZsoiNrTcmLSdtn0OAQHlvDUGv+CKmzNx3vkJJeKfpIdF54AYQv7JPFmP8EuF28ISKZ97I0ilrCZnE7AwcLPTSw2JIc4Pxn5bkaOPXphqOMsP5K6FSu0k91s6/eiAEQzhJcanmnrc5Mjyou5ZzPDno7w13tpDz/fIUzo7l4MI0suXsJu9lz8466nxSo9gaNZi/qTtqBHLwH1WzgTVbOs/dm7OIfQlZe/7DPFSp6IgSbsbzdI3b82bHrE+6LQTMqq8zmn7ujw5eCSuHl0Rws8p7jp2hm16PzZAp87ilotkd70Acqb07amza7db19Mvbuf+4yN64ZioPzOb9myNeiB2SNxMyPqVlvUXRyXwpZPpoGEET94YnTNuuvvDdoW8d1EakDJWTrVLLAw/XStKWLlDPv43en/rm7yP3nyTrt2Aw1AEts5qE0jfRKtaKJn3eY1ATnjahWkVVbmL4PH0GT5muVwz9B9wqeasrol2+01Wa3FW5IKKXT9pbfUCKcf4PmBiPodXrV6TnBUF/At0NXfn1Px2yB2xjR/608dxykpswT4vMn6FfeG6sDZf/OyUmKWXdsWUiYDi0wjJIjjoKMrhYHdS5cctgz+ilpdPs7tFrWcvYU0ZQFKq6uF//HRl0hEUH5qHjLZU52Llj5OlmueKr0BeWl+EH47nwya9UkTo26zW6QTBUoHyW0cvEwYnJrH4BYUx40/ANQqlNiLqpd9MAS09+KaPXW+fCPyWHm3zQuq7P4Vfnj7GPa49+DKfeWYTzychuQJVBzGgOL2UU2nMPO8plwTXENWy2pcyYUxEGZ2cmNSQj9kAIuBbKGMUqM0U89SSiYiwf5jr17yv2Fax00l4dYalrVn7s1F7pe9G4vEizX+Vqo+P+j0SwGmVzT4gnmSLCHljFOVn51rUTCh8F37AC3hTS8il6H481DCP0Oitn+R/DLiF9T4855TMGk4eM0/QbBFzNY4gqDmBj2a2i9L31DpVFGu+V7TegJ2+yzjs5VBTaEbiObGgLpTKBqXk39tZB4C7BP/5SP4QqVQCkgy1jM3UgD0DT7AZjSdnrPebKJT2FoItVF3jK0F2aFnoU2pBmsuBE0coXEiUM8UZpP/T8qHVx68BbnpX5vDEJbQLQPgsKTROzfiJPGxvjZiDTCFoaFkJoNUmfl8a63cvK44uwfKD7vOedbIY26UNn5F44mZskNNxh5I/bwdmwD72KR09EZv1Kd0h265ylA4OW9E/oEJoOSO78KJA2jaYXJa2yayLmAz+w+tgfF91/3GHPZVSxvpcmW/Pm2Bsaf7nN3XA2OU4kKnRuRANWBJngRmkRpeOPKcX6cy+9JEQgu2myfRrhZf1VuHfp23LqRvBaNbXZ3628zshEMmcxbmoppiawHhgGj/A0GaYUzwscrgzNNZRKfU2RYsDMqjP3PAzEcqW4jHgcqCeiCEeEq1ej9IAhbGYt2loORNIOSnwMo0BFMqYtRrFpcP3wfZCKtG1+MT+G60SHzLEy5NWlDetf483k8xh50NEtKxChsMfwl1tEmNfajkiuDfxjrY/aht7xbptbrok2twFyXy3TMijoIsGAQ2Q+lvwNuhmsT6ZbnzgWQs7wgNhE3H9FXq11anC3PwHQwOiIq/a20mYm6ep4/v5ct9CIOAMmgEZd6PMmo09Q8prZgyKamsrMly51T+zRgnvkQl4/XFR7+5WxKFf0NQP+oSBPo0uHbZluMyUKGrc9OVJnR/eL7gT/rct8EUDGzcepdZOCV0tFJ6t+XvwuWODWdAmPaRfZUJj9MZlj5FLeX5fl97M2JnSyzhfaTPCeBi8vmshZTC1stYUKYJr3iA8Wwny4RtuALHQjH448CmMYqNASeEpFBNe++HGhHezwSxBEOJqYGYFaQxOvvh0NlLtLPmX1BMUqtNX7lhEq0gfEIzbdFuVamJ18eYOb/z86gGVXOtuMMfsuKZ6g3LWqYog0PEVUP2fn8vAiULujuEcxaNwEC9DRAP4rkqe9QYkraS12pi7lYhMaoURdSExqsoHv2ys/L3epDJoKsfacRM91YTq/ph+rIKET2/KrTvlSO28gFjhfjHavZvps/wHOqgZCYCoNteN0wwEQuI5yMWYMexqbcSw+I87AbiBWwZE3mm+8XNCaTw41a2OyLV97lqLZzGXgR7Hlh9nn5UCjzAOipAkOBmbB8ISMrH+DUOx1fkBecbI0HoRAOxidAeIOzS8fTgFL2wekBghScz/my5uVWdg169c1qXwt+HyjzfViBCpxpfxJWB+6iuDZO9Bwr1CvH7WXVAYeOk8IScIOCVAJILQS/opfV9/xI7FzlT+g0tBAMD47RlVYlXhRJJxBYeiSQi0CSNvpXQH1TCfz0Xu2rFmzwHoodijNr/Inl3cdyU1Shu+03BgrPzQ0aKOLWX76l3fpPYcTOHg29rt7tPpM+bswPzCbcN+dQqpTXwzhzuVCj3YyvZmGv4Xb7yRpqYpQPFu7mJLy4f/z5okZYDaHdLF/27YFqLLzNH0nTq6cAhUmN9gryqfn8QXPAm63VIz4ZwsT+LNagIrmIwXlJK3px2e+5CsjdlvSYSCsRKqxEChko7NZBuz1nqAqef2Vftc1QPi7iIig0GEFS/NhdAWg2b5Nx9SV5u+4xSzDYNtNzMNwDQEk7f4mJUNa7rF7M1S0I6kIDe2/jf5aoKjNobwEvPvyKWEBLyZXgXu1mZ4QvgfVolol99vIxGO/UjKfZX77sHOFPtRUN4Wx5YRdhfauqL92kEkSm9bfSA0IJTJedlcDKSU65rLzajK6y5EK82jDY+xQq0LH/pYN36Kp7XmojCEDzw26O/olTXCX5unf4xBorROzR7vW2a2pvd0cFVf+1flhWuxW5xkCz6JEgXy4x25IHG580yQ5789JTCiWZOiUHPwHzJsJwo2qdOJt69V/e6VkIu7MOC8A8jS62WEwl0S4RqhkHvEH/7GFXeXRtmSKghHngTtq5B7iftL2OY+SMcWGZ6QeG3A7Arje88GN+GHoYtUu4CFKQMmTKEmihPoSCCdv5Y2JZbNPivroKXWTkGV3bS2TX40Bm9fOHg/jLR+e0ZYpW4Vo0S4ILSnSu/ev/IlJZo+WMJrNo5RZvZGS+uGese3tdtrH36DDpIcn3iTyaSkNMfrrZTzniWHbJKcFRRAkxWGhxtg9fV9SF+k8XsqPRDwFQOlqhoNKQ8uo4TKBu4Wk8L7l/+RfZsowXqVWVLEM2pL803OmOKaSsBaVEcEDjqw0Qt6UO6r/9UbE5TkmCdD42BJyzjOQwcBf9qHFlk8GSOPj+aHas1wizoSzOu9wCzBosQFcl/gBAwvXdw6Oc8NKOMQ8e8l8PrItA0PZGeuOo9sei9aFi5zPUGfkh+jHwy/VWVLeSF4m3jLexAWXhr8UWPFK/6U3tZPCy+pgk/0m3dFqQP4XCcH/fBOVR4PMohiAPrDony3XPWRHzNQhHFzDSWFbONwSjWOeXYemSaLp23SdtuNAVyYhv0JjkGIt+54AT9YcAUlP12YCUfjuRcEG/D2ALMhQw3Vzn651K+EdEvvmw57fz/2NBON7k0YhjtOucetXLggm80j01YTmWnrefPNxytpK4vJg66Bp+5ZpXBcN8fMbJUoT54arGbAeD436pdEp3tv6HJ+JaQYrF39wjhKQ5Q9RZHyUJXgTnFeiToMd+JJj4YflBfZ95y7RSvc4XARA/RnDefo2w9Vn9T4qK4MMA4OGxJc79KkdOWaIQ6idBxx3HxYWwfYujaok/F0FLg6irbHYnt4D7I3bfHbRmlG3Sgu+11HwMU5zjkJxjZz+/D2Pq0bo0tWM7fSeYONdKeKAHaT8BORcN4kdS4zfPdL4yN5WVNQLwYOGKVJ75To/6IaCjZmM/kZFlmCF4KmFB29AtTwiwTGG99YiOEPzkk4eadMploFSmCphhZSFF4V/qVVjO92E3HhkkjxR8sUo74m2zMVNoa9JS8/FX91O2UaDzP1ZNlYyd8Opw223E0N/ZbZ57g+afEvc+U2uSrwt1vOhUhCpoNRCmbzxXi/SECs4aKC0raJCrqaMeh/IzmgOtMVJZU0ivOFjyVgvE3sSCFshDs2Lksu0+EsmcRxI4iSObwj1oQUgFikCMVmSTeft3vMKq2FOXoQqoNBWK80wTRMQuz0qBdHYOLx1FlZp068N0NlJ0RbwOHGVvtLSK85Qvn92h7UByFF/Lj87/Rj/YVfsaDqG8+D5SCKNhYycxtCnpLokYOtxg315SDbgev1co1df88SnWuAoYLDiHdBvT6HivykjF5dHkagzjgiYQJvoEW6+gDui9jPDFmk5jl7UaIvck+JUmb9ZrDACuXqnSRahMiENQviZKt1QRUWk7/L61nTge6Gm3IM6+CwTVNGVx2C7YDz9mB6HpTPM9qsbLG/q6T+M0xs2PCUIY0cqkJRV6/Tpe715GrLBhorcrw3zCiPK7HR3VNypob7g/xeDbTIpMaJUFsgHm1cutZYh04JhDLPU46mX9i6rPHyNJcA1vPFEWtWpLflI0Jli33eFPZCxN41JjsNpyLr8EW84bqPJcHjB0ghmUZWZ/W6bcNTi0p72ar8oPAig+rJTeQOSeF1fCHNpKkNTQuLbCHc3RDw/fSbmQ7vqyEz+15DDQEZ7oeE13yqF4PGk3PrSPXS4MWbfzv+8u/pudPHjOaYrhZ7K4jZsiBPnbkgyMAIsYIt59z2JtsegcOgIYt1cGBHw9178h08a4troGv4XlrfpotpGJ2y1Thskr7ISU/98M3lJXGhRlxlK+qpgoKrcmY2Kyq/zEoecgi4shAguZuxnah3dkg8pPS2D5XXmGYwHoKlaK3LseN4JD2qpdOWkknofuEAQQIZPTYpioc5U8JHwFf6s6nHDNea7uc3ChSj27Vvd+Nu80TbKoYsCkjrp+QorihxGAr/+v/8VCcUyT3fTBw8i9/XtwNJltOKBUp6/nj3vGMkrGAMtRfGBoBjbukPOwmVb179jHgsdJswLnbtSiCULC+7ZBV4uRoJmp3zXKS8NvoIJpiKIuldInLfGmZFAAaO3B3X5BbpzP1ccKIojYNimqssexD5dt9TXjOuZtZ8ldaQDzB7rMcTjNJNcHh6HH1GjRN2H+3YX5QrlBWnfbWgkjPbItrHVlyFYQcKjwmVz/jagI6h/2W7UH54qYHb2ix0g6ThbUcvIQOp1SmvEAS4/gjCylNBy5VfhLBiiap5hFeFoPz3kQf+AFgwO44K2kj9yyMUJyA4l4w+BeK4OLCxDmO6yTLb0Z/XBSXpJ8/gzGAfswb6ORbE2N0Ycmu0R85UufkT5EhQPJ/s2gox+CCeXn8tg4QJsMwNeft8gW74AVWaly06fXrWNa4U1f7cGAOt1BhfEkqvXY1ZXR2cwylU8eUsuuLE9vaGnkPjQXu1C6qnYkWS8PUqmcLBZZ80EDnNVeDAG//hxp4JiL4J0iEHmvoKzNmVQsmqId79srknS5MbjD1qdeRG51LOaD2h2uCteAxstY3Pr8W1HAXNTXcAoCP+2YMxbqbptLuSwJ2JW7NendjWpgIcFsMCQ84/+hcYcusfQJnLtZZH4fEigaD0J4zRRRa+rbwOHvyO6eGX4jyV72oStUTCWUhA1p+FsNUC5YDk+0b6p5uJygWmIHzV455XvX1/THU0IC1WRXN1qWtKCVcSmYFfCjLlvzu5BW7W08ZGFo2Z3HqsQUNLqbNl36tyCjSfrLv6nVsDAVi+3w3+eACsVx/GRF4laKzzfy6Yvfq9UGFo+/3tWgt33XUgv/WBTJdTQKn96tfC3xC4bis03bORHCmYRJP1yvhMImh1bcViQJbwoRAYR35tByt8VEGx8HyAlaEqpGWPhWkC/7rGqAPQAxm/Mk53QJC5WDO6hdfFsqTDQmPPV7w3OBJPHHV89Y6/VBMUd8IYNvn+0sWqjdb+1Hj/6Jd8tSHKioonDU/Z6fOYKkRyCDxlaN0JQZ/59+P6T3redhjtaH902pocKiRzH1muEyXuqbkedOqWCVHMuaC81Vanb3Ws3FS2FGnoO1VrV4UX+uDYtrtDnkUGrHOldkgcpj1D1iN1pnxN+vugNLP7S56d/pDJo237ZlhfXJc+g+ZYUF0rueiQg6VBKMGaA2jFctWvLaOett+crzE6lZKbhEqJHNslu5tU70nMUzlswOSKCw6kuGd9cMJJbYDvB1PoNQis5qM9qHPJPi//SXGLmSvQcfxEvNj4dXUtmgSd61gFhGS5QdxFA8rEO+5hCsv71QlzQzS67nLCXD/xnA/IYo7cKaVcdulM3oKlqLiKzLB4FeasMLytFhUvv9RyjPmVZHZI3D6mdft/ZVT0URYJJQ7sUUDe0yIPmkbOeD0/8/riXewvQBd3JNy75ssGu2gxGZmReHH6c5VSy75HvN5mYjvbgSOtue6QMmVw/7cdFxbKGf8u1f+WU9QtyVgw5iPf1e50SPB9UAZh/WnjgubnEhDnvAfJTQZz8rNKH+kofqqtShHXoiO/UwgqtXL0kK2GLsQpfzvZx0ZqJBqqlZNUTjp9ipSuKaGJkAfeDQNYCz/hvGejXIF60ZIHVpmuQeWfESQWhw9EDynW6y6uHOb6f/H/FgBUj1ZN6lhgXgzdr9W2E7e06AAahLMaZPGLu+v93W9QhuR4iKSH99Lo/zhiPfZ7KtgF9tbBpXVGa1OGPgOFBesXxmzxDVGLFJx1NQYxNhIZSo5sGo6WcDNuaK6hAE0IC+ZgNHhEzN3sK4GABFsjUMRgaS7AUD5cFGl6vYBfeUxi9N+s2nWreZAJx5QBCnoFPvOeutSfqBwaRuIW067yBtC5uGxrFRuWU2OIfEnlCbnFJ7VSnxQ8hSw1O2FzxggJa8ouxOThTdgsOXa5ryrnPVH5//DjGVgNWq8kOSE1iK58aZnfjTO6nE3naD7+QwzxrTzHQ29gAAAAAAA;" vertex="1" parent="1">
          <mxGeometry x="567" y="-440" width="80" height="72" as="geometry" />
        </mxCell>
        <mxCell id="CNqWCXkzFUm2wQk2d3Os-18" value="Gruppenmeeting dienstags" style="text;html=1;strokeColor=none;fillColor=none;align=center;verticalAlign=middle;whiteSpace=wrap;rounded=0;" vertex="1" parent="1">
          <mxGeometry x="577" y="-368" width="60" height="30" as="geometry" />
        </mxCell>
        <mxCell id="CNqWCXkzFUm2wQk2d3Os-19" value="" style="shape=image;verticalLabelPosition=bottom;labelBackgroundColor=default;verticalAlign=top;aspect=fixed;imageAspect=0;image=data:image/png,iVBORw0KGgoAAAANSUhEUgAAAMUAAAEACAMAAAA0tEJxAAAAeFBMVEX///8AAADU1NSwsLAgICD6+vqLi4vOzs7u7u5eXl5ra2vj4+Ofn5+Xl5clJSVQUFDb29t3d3caGhpHR0cqKirExMTz8/Pm5uY9PT04ODizs7OlpaW/v79RUVHf399CQkINDQ1vb2+FhYV/f39ZWVlkZGQxMTEUFBQYcrvVAAAJZ0lEQVR4nO2dbXuqMAyGxU1lcwhuKL6jm7r//w+PgkBbmpS+AHWnz7ddYOEetE3TJAwGZrSbp6+ySuc7Q1c3o8mnp6bjou9br7RRZLhr2/fNF5poQHieLW+VFoTnjfq+/0yBJsW4b4BMV02K174B7lpqQnie3zfCTYk2xbRvhMEfpAg+miuwlkLmBfetpUjUfuYoTOkZKfwpo2SiTbFI2EZbnUEmb/iQKXNxwQD9HrUFccIvrPwsAI52IC6i65p8Fje9tQHxIbys2WfheR/mIXzxVU1TeEvjFC8Nriqz3hk1aO/FOMVcfNG1VIOxuMG5cQrBIHvXRKrBhbhB8/1bTCHrzRAPF51THC/y01R0OfZH8V0zGG5SbJXTUvLTCUVgvG1a4xYpLk9BcdgGc0Q/cQ8U648A0XbHWjxbCXdxdxRCrUj3aCQYK6yluHGUz6PB/GMtRTnXRnK/so3CyyYqaQ+lbRSZEdrAzLOcYtxs3WA5xW0d0mTdYDvFbvD+Byjmg3X1x+sMVlxNKd1R/O5DUPuv6sZXg+ru8PXBVw8UX+h524qW2Focor+xj2JY3bqjaEmOwlGYVdAJxX7crsJOKLqTo+Br3z2EtzdOId6DMS98O0mFQt6C19fGOIV+6I288P0QFYomO2KGJdiEUaIYnDuGEG2yqlEMvjuFEJoIihSDw7uUE1FDcSDedValuGvUhRrdiQ6FPXIU9shR2CNHYY8chT1yFPbIUdgjR2GPHIU9chT2yFFoKxouNpvNbqKdY2GcYhqBos7zt2RA6znQ+sdJUERv75guecgbkgRKeGWiunfxmPvOfMFVuAEFEhSiOLY8u2ANn1BSjE7c49mxqeAqPy1T5P8lOPK9TLWNfrnHw+zgQXAVbtqxBMWuEcUreLzIA4Ay2U/sDfVCkXvnYfdt/r+G/9k/KGMhrudZgkJU0iCngI+f82Zm+P01633qFKKNsI2A4pIdh9PxN42euO4Yta03SWknoMjSWZDsnYXEE1enEBU1EFGMBf+KocQTV6cQBfEtBBTZuxDCx32JJ65OIdoFm8AUr9f0K1zgkPmk1zrFT71JSkMOxW449f1lZXrQM/Nq549Gy+Vy+PIeFxSi/VtdCjDy+fP6db5ZP1miIdN7kct5XkoeSTYCiuNs/XW+8FNzJSgunvd7u9/3E906PQ0xO/psG9Scxt3/vfW+3zg9v8/p6ZNrPqlQlKJvlB766CjvmP0pnVSABrzSpgyeyKpPQRdMAnJSi/GRDb6I9+F+/fb9wlknfXIbaIuCPhcwrMtcSr45ezOyapekKfByRvoUB+oYYOuVDcLJEeybT1PgKaX6FPTLAGTTlKiI4c0ks9EUeC6jPgXYHh8VCYShezBNged3m6YAlgfVCdiKlLrVTimYkk9CCsxopaYeiuLXfJQXdWUmuFJMgWBcQQpB1rs2BTMB85dq9AOLwFBW8r2hKMKWKb4xisVkGEXTxGffh2jMd5WQRhJFIUjG1aZgfBI0BdaK7/vJkEl4J2cFikJQ9kCbgrGFqGXzrP7bEdM0vZwgD1IUgpg7bQrGNKC6LieseurR9QRoSx58owSFFLQpGNOAWjavtkTZsbzn3seweByV3ZheBpPWDEWBG4P6FMyqBV5w5tVaijcuPo2D7TZgvLpkSxSFoNKoNgVTSgZecPqC49492Q6iEFS10KZgjsHunvwlQhfv8Nwt2KfpjOJhQ6D5AtS99kkBOq0ei9cUgaAnaJLiKAir1aVgDRzQafU4EYuIpl9+kqK2fjdMcWlKkdZ/y4iZn0mK1QCXLgVrGoC9N/f7I4nw7FMlKfB8Hn0KxhiEKXLbF95jmbHroM/aj9ujYP1EoHcgdw6ARS72tf5LUohqCOtSsKYBSFHMBZsV7yjHTiIpRMXhFCgKA+739ZrW3Ehg1YFqRjuM2R3MMW8gfRw7fsZpKCp1rvIsJtEh8YHl/Clep+H5cpp/B0HwsX3ZbHa3pdLhcKDOn27PjyH3uA8AV9PtKlPS3W6awohGyXC3GCZman+7mBx75CjskaOwR47CHjkKe+Qo7JGjsEeOwh45CnvkKEhFO7kS5mZlhiLJfDP9fczMCEURTtTbF/JMUCwLN57IQd+aTFBUARF9fQbMAAXhJudtIvrDiQkdOE0bpCD3huuevqWx8ka/SK/TpiCD0+pBr0YLZsFFpFQoppNqk5u8TU7nbvCpDAmB3U6ewr935lnxmsboReQrQaMCY1qkKZbUKeT2NWfy1vskaE1glJQ0RTki3XsyuUfPC5sxTMFu6KpTlOec6GAobhyW4Wp4YHyROoW3IGPKgQqTJ6MUYDiqNEW1Jzcjw4KgPSHuXqSi4AlDmoIfAAUHUMuXJAcUIrO3/EjLyxpEbfKlb0LYFRQoOCHWbZcMFkph7q6FQIEDYGdSsUCYHntFT+5ESnYUTWHBt4X1a6La4C9Rs8yJcHfzH75TkBpFNWub/+6dihRXScXch5e27kyqa71Tdt7Vjg/Rq69Yd+ExbuHLnGpyflp75CjskaOwR47CHjkKe+Qo7JGjsEeOwh45CnvkKOzR/0oxWjAfLk8+oASpziRNkf2A3CbM9lF7dhHKUjyS9SpP1CMbsr8Ir7tkKYoaE8XTKAK8+n0YshRljYkcoyx69VwUlbf8jlEl1wpKXbQs6d4dEBhV+TFBHZu2JT/SVlnDQZn+j2SR+8EJLSfdVN9YaKXCrHfyWCG7GKJCrRI6G6WoYSAQosq/UoKfuJIFQidxp8iZWMkJeYEvlZodRQZ3rZH9JLBAgJrAYpyK1mCFge7ZG47yAnuGGsXoq9m5Vj+LEVUnBjvZLAVorClRMDXqkLJIorreUoLHQhWKWqE9pEimqAyzhFJ4GFGg4JTBTuCzk/HlzYTmmO0vT1EFjkdhE4wuJE1RzXgH8t3qNwhBliKizqkGq36D7mQpyt6aOwxGRTTqqasb5kqWohg6C5Nm9AiXF1UValeKsc3VgDHKw4T77d7SFAcaYjBYhvgPupDCfDGcMAPSsvf4x//Vw2mjHIU9chT2yFHYI0dhjxyFPXIU9shR2CNHYY8chT1yFPbIUdgjR2GP/h7F8U9QVJV70pfnUrX/PsM+Q/g0CoUf130GBejHFJ9FkenKW33o/hmc538Y2eBqMMqvFz123Y1VGOpFZfyU6LPyNosowzB91i4e0mFa/sv8LU3TVaU1qSutmNSs0muHmq3OH0WM1j+J66oa51zEyAAAAABJRU5ErkJggg==;" vertex="1" parent="1">
          <mxGeometry x="100.75" y="-532" width="59.25" height="77" as="geometry" />
        </mxCell>
        <mxCell id="CNqWCXkzFUm2wQk2d3Os-20" value="Individuelles&amp;nbsp; Testing" style="text;html=1;strokeColor=none;fillColor=none;align=center;verticalAlign=middle;whiteSpace=wrap;rounded=0;" vertex="1" parent="1">
          <mxGeometry x="100.00000000000001" y="-440" width="60" height="30" as="geometry" />
        </mxCell>
        <mxCell id="CNqWCXkzFUm2wQk2d3Os-24" value="" style="shape=image;verticalLabelPosition=bottom;labelBackgroundColor=default;verticalAlign=top;aspect=fixed;imageAspect=0;image=data:image/png,iVBORw0KGgoAAAANSUhEUgAAAOEAAADhCAMAAAAJbSJIAAAA3lBMVEX///9EWmRUbnp4j5v/ySj/3yh6h40+VWD/sQD/sAD/yij/1Ch1jJhthZFFW2VgeYVXcX3/3ChKYGpRaXU/V2X/zSX/wR7/tQBNY205VWb/0Sj/vRbCycwyTFfJz9Jrgo3nuzC6n0H1wytuf4Xa3uCVoaaCjpRNaHZLa35QY2FvdVqJhFWllVK3oE/ApU2mk0ZQYGHPrDeZi01qcFngtjPHmSn0rg6Ee0XsqBh5c0qVgEC1jzfEpEHfoiJZZVtgaVjOokh2d1WoiT6QfEjLqji7lSrJmSd/dU67mEhujJ/OGrwqAAAJmklEQVR4nN3d+1faSBQHcBOzEoOESAIE8YHPrtgWrBXtro+1Vun+///QhpAAkXncKy5+x/lhj6eH5fA5d96ZyV1ZWaBsr8W+9X8XP17bXuRHLlCODndK/7tvVEo7h0fvArSX40uN4XsQT5YHTIgnywfu1pYItKza7tKFx0sFWtbx0oWvqaSlvLzif11+NV3j/Uzfj4PqXmVjY3Vjo7JXDWKfN86U1qCFtTjY21gtlo29IGY0ZWRhEry9VXFJkNRIAgvDakXiG5VKNTRbWIqVvrExJn0TqDDQ+VJjYKywVn3ZvYjLxp6+y4EUhpQAZmHUtkZAoR/QApiFMdB0qnhCHjApGiKesMrzJVFUV1Q4YcAGVu1QFUUwYYlbRUdA21ZFEUzI6EVngLYdmyKsyeahGqBty8dFKKHP7WUmQEVThBLazEY4BdqBtJ4iCbl1dAaoqKdIQuZAUQQGsv4USFjj9aNFYFIkLRFIaC8GlA2KOMISK4TzQFuyWMQRxgsCZcM+jpAzFgqBto0t9BljoQQoHjBghOHiQHE1RRGW6JVUChT3pihCizyfkQPFQyKKkDzcq4DChogiDIkdjRIILSSu7dVAYVeDIqRtAWuAwq4GRvgWQGQhabDQAqGFhMFCDzRcSABCC7W1lAJEFmp7GhLQZCENCC1Uj/hEILRQOWujAqHnNLFCSAZCz0t9+dqCDoQWyocLBlC4UYMilO6WcoDYa/yauCFygNj7NJJtDBYQfDdRWE15QPG2Po7QXxQoOXWCI5yfuPGAkkqKJHz54IIJDCSPSIGEL57icyMoe5IPJCzO3LhAWQihhH7weqD8MAaScOaoAhsoP1ADJZysofhA+aEoLGG2EOYDFWf3wITp3I0PlJ3DQBQmxLcF4gmtytsCAYU1NlB9Xh9PyCWGmgsJgEKrFr4hEFJo+XSi8og3rtDyqTW1pr/BhilMShhoedIDl2YI9VVVX0HBhZoeR9vDmCAcXZIVI0PGNVlsYYqMP3369Gdekr9jzi1gA4RRq3XaPfv85evNzc3XL5/PuqetVvRxhAmv2zvvdA4OHMfzPMc5OOh0fvW6HCSyMGrd9TopbYRLS/Z3p3dHNgIL+w+/6vWcViieV6+fP/TNFkb94blTF/GyUvfOz/qUOIIKo+6+0pcanf0ugQgpjPrfvovrZ7Gy1r9/04cRURjd7x94RcpWeVy2inDvYP9eRwQURt1zZ8ZRL29ubv6Rl+Tv8kz19ZxzXU3FE0YXHW8K3JripmVza0r0Ohcts4TRwzSAntA3Nk4/5Jwpo4gmjC4mQK8u86XGSYtsN3+oiGDCqNvJf3i9rPCNStYe2647GCqIWMLo7nwCVAUwD+MY6Lq3F3IilrC/n9dRAjAlpkDXvbyTErGE3/JxUNrFvCA6blZ+GnGXO7r4zolgUspOe30slDdFJGF/v84FOhPi5R2+MDrLGiEH6DnNsbD5iC/s/xqH0NMNEzPA5NONrCXenqILk8lMVkeJwMmInwdR3BJxhK08hLQ6Wp7OXbN6ei2en+II7/KBggv0ss6mKV5lwAhbvawjJYWw7MyWrCU+CYMII4yyCSkphEVgHsQBdC2Nug49hEVgUrIx8UpUTVGErR69I50D5sO+sJrCCLNFBWEsLM/vUTXGwlvhLQAQ4WnWDPWVVAB0slH/+h5XONqcoQ2GImAyJKZBHIgW+yjCs/G6STslnW+DMw1x8BeusNU7SH+pbqyQAPOu5m9BV4Mi/OJQOhoZ0Mu6mktg4T5FKAMaIbwhDBbiTmZW+Gy2UA78IEIF0Aihth2qgEa0Q11fKu1kjBH2xiO+bDxUA00YDzVzGh3QgDmNel6qBRowL1WuLZSdTFoMWFuo1od6oBHrQ/kanwA0Yo0v3afRt0HHjH0a2V4bBWjGXptkv5QUQVP2S0V73iSgKXveSW8699yC0sk45jy3iB7yB8A8oGfMsyerf158fkgEmvP80LKKz4BpnYxj0jPg4nN8IjDvZtxnA57jz5zF2NqkRtCssxgz52moJetlTDlPk56Jyn5426FYJ8BnU85ERfdpPU1++Lqe6E2qqHttzLm28dnENDLrzYaa6DWaOdCgs4np+dJJ1VOF0Zt+zG3+UH0jmtBqnTUnP91te2Kj5019blO4aMIVWtGPweTHrydxnI/eqKGuTz4j3JyBFlrR8HYaoPX1dqPhZBee0og2Gu31qc+9Hmq+DlBoWd1Ld9boNpsJMy3tZtOd9bnPXd2XQQqju58D1y0oJ6Xw74Of8nEQWmhF1vCy6epK83lo6S8+YQpHYXy8VRub14/6AAILk3J6pTAmPsl60CChFbUungZC3+Cp+xHukKbG6Orp9nowdQ4G17dPV6UPcg84Q7buh4+//xmX34/D+w91l9savVghqFYr/+alUq0G5NcpGCD0w+pc4vFRFuAq8Z0Y6MLafF71KVL6FkFzhL4mMXelavi7TQjZHjckbyw1QhjTkiPtKTKsQgt9m5obqaJ+VxuqkJpZPa2pVQPf9VXjZZTVJZDHE7JzAmsaI56Qm9VZ1xbhhNwIrlYCs959+SqgSe8vZadWHwPNeQctNYPeS6Ax7xFmd6OV6asHjXgXtM9MWz0LNON93qpsOjqgEZnHfd5c5gXQhPfqs5I6zwFNyI3AC+FLoI2f34KT1FkIhM9RwkoeLwDi55nhjIVCIHquIEm+Jw4QPPM4o5LKgNg5uxiZx6VA7Lxritx5dCB07jzyjE0FhBZS101KIHQOS+LSVw2EzkNK62g0QPOFOiCykDRYaIHQQsKcTQ80XEgAQgu1tZQCRBZqexoSEFuoHg9pQGihesQnAqHnNMpZGxUIPS+tKdYWZCC0ULGJQQcKH0GhCOXDBQMIvca3wsWB4Hm5JdulHCD4TpR4zGcBwXcThY8teEDxU1IcYWl+vOABA+HXAgnnd0x5QMmmPpLw5aDPBMoekQIJrWAhoCxVIJKwcFCBCzThKXfh1CwbKD1uAiWcPslnA+VHhqCEk3rKBipyAmMJrbDyOqDiACaYsDRa6/OBqpSrYMLRkPEKoEmnL5MZ+NsCAYU+IRPwbAk0N4TwhEyiDogoTBZSDKH2TgmkkJFAXn+/C1NIza5OuaQHKkxqqt4YEm49AQstX2MMY8Nv542MtdAWd6uBHdaot0iRhYlRhEx5H+OWbM6Mw4Q5cib/CamV8z2FJ0zhgqV0snTh8VKBlnW8dOEu6zr9wqW2u3ThcqvpO1TSlZWjcHnEUnj0DsKVo8Od5RhLO4fvAkzK9hq3039F8eO17UV+5H/X+WOPUMZNlgAAAABJRU5ErkJggg==;" vertex="1" parent="1">
          <mxGeometry x="250" y="-632" width="62" height="62" as="geometry" />
        </mxCell>
        <mxCell id="CNqWCXkzFUm2wQk2d3Os-27" value="" style="edgeStyle=orthogonalEdgeStyle;rounded=0;orthogonalLoop=1;jettySize=auto;html=1;" edge="1" parent="1">
          <mxGeometry relative="1" as="geometry">
            <mxPoint x="312" y="-601.38" as="sourcePoint" />
            <mxPoint x="387" y="-601.38" as="targetPoint" />
          </mxGeometry>
        </mxCell>
        <mxCell id="CNqWCXkzFUm2wQk2d3Os-28" value="" style="shape=image;verticalLabelPosition=bottom;labelBackgroundColor=default;verticalAlign=top;aspect=fixed;imageAspect=0;image=data:image/png,iVBORw0KGgoAAAANSUhEUgAAAOEAAADhCAMAAAAJbSJIAAAA9lBMVEX///9EWmRUbnp4j5vlUADtbAB6h40+VWDXQhRmf4vsaQBthZFCWmVWcHxHXWfoWQBRaXVKYGo5W2fqYgB0i5fZRhHhUADpXQDaQRFheIPCycwyTFfJz9LrUADjTgNPZnJTWV1nWFbcUABuf4Xa3uCVoaaCjpQ0W2hnWFCFVTyfVCqTVDdHWmBUWVeyUymMVkDeSwvPRBamTDm9RyTZPgBjY2aRc3O7UhfOUgq4Uh9zV02fVDhdWVSoVDTNUhuUVj2WTz17U0qrSzGGUkd1V0XGUiHCRyXKRR5sWEzXURK0UzKXTj26SSptVVONUECeTjmZeHmFbm9mN/8QAAAJ6ElEQVR4nN3dCVcaSRAHcIclcjXIITgkkUuTjQYPPNYjRqNmQ7Lrms33/zI7w0zDAH1USRb/nX7P98zl4/eqprqnp2uysrLAeLna9v7/0V59uciHXGBsb73KLAHoeZlXW9vPAkwtxzcylp+D+HZ5wID4dvnA15UlAj2v8nrpwjdLBXrem6ULuUkqRLVa/T0awXdC8P75M6TpKkMYcvrvdnbPznuNdKN3fra7864f/TZZuIorDByd7vuz3mYw0tEIv+2dve92PLIRWCj63YOLxhg3GZubjYuDbp9ohBUK7/LDdXqeJ5HXHy5pRlRh9erjuUYnx/nHq6qzQiEOri2+cFwfEEoOpLC6t9/T5edUrvb296xhBBQKcTkTwLWNWj6ffxF81TbWZsL42RZGPKHoHyQD2NiovZgetY2pMB5YCg6cUPRvGono1fIv5ke+lohk48ZMRBOK6gebb9bY+m6c/uGEBxPghs4XGSWw7n8yEcGE1YPeOIAm38i4FgGz2ewnQ0XFEla/npMCGBM3YmB2eKsnQgnF3sUYaPWFYyMCZv3jrjZPkYSi/5EHfJFvZKPh33V0RCjhbY8JXEsfxsT6vQNC0bnYJF+DMTAtifo8BRJ6cqKwVtEEMN2SxE/wMRSd8ziEs8s0E1BW06w/0FyJQMKdTc5FmB8vamQQb9QzBo6wKqdCUo7mEyvTelxswIXiHSdHk8B0Kw6ietqHEVb3YyEbKIPoP0ALRf8b/SqcAcorcbCnqjUwws8t8lU4C0w34ivxXhVEFGF1N54LnwAcB/EOWSj+pNYZBTAW+l9Ud/sgQrH3jZikKqCspsN3wMKvRKESKNc1w0tcoby3ty1J1UC5OB08Ki5EFOGHaIPNMldogONScwQsjO99zUItUJYaB4TGUqoHSqFqukAR/mUXGoC/htAE/CWERqALQlulMQNdEFpmCwvQhVp6Y5zxbUA5H/6NKxSfvxmEVmC8ahuo7vJRhFeGdakVOF6X/oO7LhX9+MG2opjagfG9hT9U3eSDCL3qfvRZ50sNASgLjXKjBka4k1anKQUYJ6n6MSKKUOz1lGlKAcob4KzqBhhG6FXPot3ENT5QJukQejcxSFPFjjANmJbPZrCFoh8fMlljA+Pp/kT9aAZG6FV3Z4NIBMbPgTVb3kBC0ZVBzLOA8sHMiWq6hxJ6fRnENRZQPly7U/9UJKHoxiu3UZ5SgXIuHGhCiCT0Jifaamyg/113ug1JODlOs1bjAvUHapCEnriM87R12OIBB/e6n4kl9Lz3vfiD1ylECcxmtTmKJhTexfiD24lyORpMhYYjpljCYGVztikjc2gBHo6ByqdqoMIgitcn8pPXW/o4tiYZ6g+Nh4TRhJ64OvblZ88eaipO63AcwKCMXjl1CjokPmQno64wtg7rk7/gP+gPXoIKA+Jd1k8Y68lIBtGrJ33ZOwsQUeiJzuMgQQyRiZH8A3/wqD1XiiwMu9a+TBE1w/9C6GCDFIZNCTdZm9Gv31A6LUGFwQ1x52hoQPrZ4ccOpXUNVxiE8er78cBXIX1/cPz9qkprscQVhsa9+6MQmWCGvxgcH93vEX3YwtAourePRw/Hg5NoDI4fjh5vu4LsQxeGSCE6p6c//vg3HH/8OD3tCF6/Orow027mCuvr679FI/iukGu2WT8BWlhpStr0WG/S3zwBLCyVc0peNHLlkuNCsy8cBZoRVdhuWnzhaFJeVIQpLBULBGAQxqI9jJBCXYGZH4SSgyhs0wIYh9GWqYDCNjWAcRgtRDxhm+ULh5kIJ+QDc0XjtYgmZKboCJgyEsGEFU6RkcBgGIhYwhJlnlcAU4blDZRQFLk5GgNTKX21gRKyJsIRMDUe2jxFErJzNAHU5ymSsLwAUF9PgYQl2+2SCRgMTRCBhMwQjouMDKKm2AAJeSGcBQYD/cRQZVGg5krEEbIK6ew1GJVTcCFnslcCU0VsIeeeQg3ULGxghIwk1QHVaQojpFdSRZGRA1lYIi9JDUDl4hRFSL7zNQGhhSmi0AhUlhoUIbHQaIuMvtS4JbQAi8DCDEloAWILKZNFuKtWjL5+TWFYZEKboda4LQwjGOucjKH1Ohyl6MjoZpZaa6mtyDgvzI2z0zjjIwvNa5o4glYh8prGuC6Npgk5VxiEyOtS071FLi4xqUk1dVBouD80L7anhuoHwwi1pYYBxL7H1+3TkKaJeGDv02j22jhA9eEaHKEyTTlA+P1S1Z43Cwi/562opowik9JtCCMJ5549MYH4z55mnx/ygC48P5wJIusadOMZ8PRzfCbQjef4ybMYXKAbZzES52nYQEfO04zzlFtknDkTJc+1sYHunGuL7oTZQJfOJob3GD8XiCf02mygY2eEg2uRRzRHEFLoVVhCWzsCotCrlMm+spP9FsG82CYC2472zIzCaL8ai/YAAgu9UsW8NRr8acXp3rWR0bC/XaQkKLowWInrcpWWnw4Iw9Ger6tlStuhO8JgVNrlYjMaxXKb+3/PwwuDRB11c4/uqkad3JwUhReWys3C/F74eqFJbXMGF5aKCt4YSTUCC5vm44pUI6yQcJRvXfm80BFhhXagNkeoOZDCEvUsZhBGa6oiCunN6pR2dUAhMUOpmYonZDfKFsxEPCG7E9jy6gg4IbNFLwRqHuCDCp8CTKkP0mAKi08Dag4pAArL3F7ugmO93Mx5IgF05fkhN0cTQP3WPpKQ+06MQnITx4nn+Mx2/ML0LpWu2AAJeY3As0BtEIGEvBDOArWTIo6wtChQs7LBEaYWBOKfTWS94Eu9FY4t5NQZDVA968MIGbO9Doh9CprUnmcBYp/Vp/dyG4DKbSkUYYW6YjMBoTtKqPdNRiC0kFhozEDozi7aks0CdLn/kASEFpImCxvQeaEV6LrQDoTukrX3clOAyDG0VhoK0GkhCYgtNL/XkwbEnvGNO4lUIPSqzbTyJgOhhYZNDDoQ+u5JP10wgNi93Lp3ezKA2LsYXkl9IXKA4DtR6qe/LCD4bqLylQM8oPoBG44wM5+mPCB+L/fctj4TqHm8BiSc3VDkAZ3o5S4uAtQ+5kYSTp334kZQe1QBSZg8NcsFunFSIXGXyAbqj7ZjCWWeslPU0IWIJYw39/lAQxcNmDAT3uuzgcZOYDBhOGX8XCCe0GuygYaDiZDCErNdvWhpRMQTMok2IKIwuJFiCK29iJBCRke+vWkGUxi2qxN6uUm9wKDC0VsHbL3ctE5LWKHFSPVBC71SRZerQX7SmvHBhSNkefats8UwfPQmWXRhpGyXR2/ZDV+yW6YH7/mEb7nd6ouNzNulC98sFeh5b5YufM19Z8Bio/J66cLlpukzJOnKynZ5ecRMefsZhCvbW6+WY8y82noWYDBerrLeT/LE0V59uciH/A+zem1qpYTYCQAAAABJRU5ErkJggg==;" vertex="1" parent="1">
          <mxGeometry x="251" y="-434.5" width="61" height="61" as="geometry" />
        </mxCell>
        <mxCell id="CNqWCXkzFUm2wQk2d3Os-29" value="" style="shape=image;verticalLabelPosition=bottom;labelBackgroundColor=default;verticalAlign=top;aspect=fixed;imageAspect=0;image=data:image/png,iVBORw0KGgoAAAANSUhEUgAAAOEAAADhCAMAAAAJbSJIAAAAe1BMVEX///8UFBQAAAC5ubmbm5sQEBD7+/sICAiIiIg9PT0GBgbw8PAjIyNHR0eOjo7X19dcXFwaGhpqamovLy/AwMDR0dHt7e24uLjo6Oj29vZxcXGpqanLy8vd3d3k5OR3d3eUlJSAgIApKSmkpKRRUVE1NTVkZGRDQ0NXV1csRNMiAAAJ2ElEQVR4nO2dC3fiLBCGEYVoYust15porZf2///Cj8TVRgUGEjSkH++es6fbPSE8gcAwMxCEnJycnJycnJycnJycnJycnJycnJycnJycnC7KovXu9DZpqe/5OMy6RnkURcF6jkt5beV7rJRd0DXRvTZbVi0yKP+0FysF46RrpF9RhIJdiWdUBL8jSrtmO4uihGCzeJXwZ9dkF9Gt6fY7i+Bh12iVaHB4RgNWiAMrhtR4hY2MLjxZ0E8zlK2e1YJMZNE1IBtkntZFK+G8a0I0VgYkXmUO6HXo7rtprgjIJnB8/DktfyY+o9QgXHZNOFWqLcGLXR6fr8jy9y/1yQXPu+VDnypNyPjWt6N+slJl7JowUKkowePHWW2k2FW7JhwpNCHBIe/S2VTpDe6a8AtuQg8XvCspio8qiB0TKgykpATkLxCCL4WO2jHhDiIkZRcVLoAKTMA+0DHhEWwEPBYDUrSG+0C3hCk4kpJpJl7Esv94gx9Rp4Qh2AR4Ly8BfpG7JQQ7GSHQ8m4CNWK3hO8QId5BRezBIjol3ILVA5c+qd2ES6B6BEMuT4oWwGBlN6G3al+G3YQqtYPeZcsJP+AyINtdi5DNvOnn4c2Mvg8UJty+nHBd+kl8I8JEoQ0VPBBGCVFi0DNduvnAkeYNrhNkvGsRBrAlb5ZQxdl58A0SKljy6lIixBuwUlC30iIETRAdqRAO8BqqU2TUpgErpCMlQv8A1QlcQzckJO3lqRASvo/mVxk49jUkxAbkwfMhPOfDvrpmhDgPWiuOlbo9jmQ1iuHpqyHhTOMqlQLF8iZUEoqfG/bT/BJKH2yDAsUiMstNxZ9sMSE5x5s8cXiMmVhlfoq8o1pMOPCwv12HR1zmjPCuXmN/ESa7qTyAYTEhXlXhinSB8Zznj9ph/zyX5N/SYpoQEkZoJBFHQlhm+5wVs1a8yW6qRp78C+PpxabbS7qqFuHpOpc9vQ3LRJjLGEo/2Ms4SWrtSMMDq8Qp+PecKcrFs4YWYZ4Mz0riZxPeGqThV/lYl/t8EwRpvv4oLY5BrVkpCoWIz/ZiyDuzkBCf7opZH28Noukoq5dNxfkOMGFWzJprI3dZiwmLh2cTjScXvOOuHINuDAEqNFAlhLR6dj+klfFJJtuqS/MNExEh5i8pgiIcDsMZ/xURLTJkhBQlC+y3W9ZXKTA/IeIHkISEQDyGJ1GUR9qGZhIGCesFR24kXkzYII9J5N6XvYcGF7wensecUUdICKwKudIn/DSZ8snakdOMQsK0CSG/uiJCWsbIzQFWjKOHVhQQEr9JUqggYi4mPJnOGCRskXCHKCJslDH5wy9M2EvhELu+WCsqEXqTJoSCwoSEGr5RMlDM8H1IbhJUym9kaAmCUEJC0Et3LeE6uasg3g4hoseuEJB5lCDeLSRUew3ZEDkfhUW6iZLxCis4TW6NFRHhZxPCRJNQwcdDBniwr5lQ0RJOF7ztpyJC0NPNkyDxpBUhfv8dG2k5ThYT6KrbuLWIkG8BASpMExI84PgUd6BjqL7Fg09Imi2wY9OEePVohzHzGspv8Q61q0RtCEecOKKGCb2FYJ0PxmRr1RcRNtvnwu89jQlFbm8wGFFfGQl6qd8IUGC2NSV8tMCuhECkuH5HPqFKFg23ytxocENCbypxwMjNITKFCOGgIV/8AG5DQvkiXJqIRfDvC8wnVMmieRQVbGy4d2qpEkrzzeRpSrU3WPAeLhqKfzuRCSgl9EXP5ayZnPB3PhcNSg3DyvzbibqblBDyFEmtcAVCkxJ6ROSEgKdImuPyWkJfuNaUEwJ+FGlaymsJxTvWZYRsOJR766VbCl9KiMV5Y3JCoA2tIZRlq8h7KWAaf1hCKN1w02qkke7zeBkh30erSHjvNLtT2/nQiDB+28iie1JC70cKKM+mqxGexEGr9jqE8vAlYLVJg8ByP12NcD1+lkYheHQLQCjrplQekfsl7PbYETmh9LgJwJHRzM8Ei16k6CGAVsCibYEUxUBQ9VmEX9c3UC2PAvRiCCcM8MonEa68f0sMA4Rk4GHPTx8j12W0/h0TLD0I6WmEl3uCm6XOkhCymXSyxP70cbahZVzVP54GMge/9YQED0ZplTbncTrqFuNpjGi0lCQpWU3ICsG7c8vtsVcddXBJzSp/yI8Yr9LqVzPhoTN2E1ZRk3+vX14OW5+1VUZ+wD4+0er/2d+iY2csJ6xP9cGyZPx+H0bFLF9vq2zW2nozW/FX+nYT3i0oo/mNJbj4vJlsBeap5YQ3g0u5W2//szjjHbd3NaeiMmwmrPurr6KbWRQVvFmWnxJpNaHmiUT8iJ7dhGO9m/awDTVzBrkBDLsJNY/L/Ob5a+wm1MyK5Pph7CbUzIrkujPsJtTM0edG9GwmJFjTs8KNBltN+KV502HfCFW2x9+Ia5naTKi9/WTTO0LwxJ87Bb0j/NS9a+8ItbMieaepWk2oXTfeSVxWE2pv4TbznNSkS8jLgsbrUFM/FrchNxSvHcPj+aJsIeSaI0ZkCyF8pEbfCYFA7l8gVDhUo+eEku3Rf4Ww3Mf/xwlRorDPp9+EaFPGXjxp1qq+nvXZkEaEjHE/P07Nyqo2POs3jYMa0TPwUCvCnsgE4ehje9ayyW7yZ8sE4fJqURs6vcWozBBeynCEXcgRqsgRditHqCLj5yYa1dEo4Xhkn6YmCY2cX2pa18WsEUKrpRup/l8Rgh/csEIENwZU/sxdt2q2UfqfFI4D6Vzg8dFSxRpf5etEZNDuM8cUBduu5wRIk9Yf5QzCyxGfutK4Lkma3kT4jTYnA8pmhbJmjQ6o6VqRztskP7PBUoGfaaip1ZTWmRyhI7RfjtAR2i9H+BcINQLhPSX0lNVPQhpkygqaHZz4cpmK2Fu74GMVy6L9e0uNwianl79I2Xu77ypcNI+sbEeKcs+Q28rX3gXxGhn83iXB8jONulFk9rsDFk4fK/Dgay09K1WsqajZD3oOmh61/0yBH3XXlW2BdfCL5/qEwBFxr1aoYYQqmqqWORjDr4lhHfWOc3BycnJycnJycnJyeqbqPloL/XMGFP16y8NepqyAmlWE1emb9PLBZ1T7V1+VlemIWYk3o0WOUlqwX6VpHKIURaxhEQ1Ty7wgetqkMUUMIUSoKP+aMaZik2aMuKDsx4LGveZDcUiDFA1pOqOsMXNUNiQKszTL0jTPZijP0pnFwQ8FrbMiCuKCFjSkFWGUBZR10CxiPZWmQY6ysNdvYVFSsSZL42LDXkU21CQIMax0w7BC1lHZmPqkzdUvUn6eBGcoCFGWZJso2aB0mLLZIo6GEUqTDIWt02o71bUDJuefavHjnk8R95r1e7xUUJsM9l6o31O6iuCPkvRc1LIAY1f6D2gc2qpOGif7AAAAAElFTkSuQmCC;clipPath=inset(7.78% 0.67% 10.44% 2%);" vertex="1" parent="1">
          <mxGeometry x="392.15" y="-440" width="85.7" height="72" as="geometry" />
        </mxCell>
        <mxCell id="CNqWCXkzFUm2wQk2d3Os-30" value="Wichtige Erkenntnis" style="text;html=1;strokeColor=none;fillColor=none;align=center;verticalAlign=middle;whiteSpace=wrap;rounded=0;" vertex="1" parent="1">
          <mxGeometry x="252" y="-368" width="60" height="30" as="geometry" />
        </mxCell>
        <mxCell id="CNqWCXkzFUm2wQk2d3Os-31" value="Nicht so wichtige Erkenntnis" style="text;html=1;strokeColor=none;fillColor=none;align=center;verticalAlign=middle;whiteSpace=wrap;rounded=0;" vertex="1" parent="1">
          <mxGeometry x="222" y="-566" width="118" height="30" as="geometry" />
        </mxCell>
        <mxCell id="CNqWCXkzFUm2wQk2d3Os-32" value="" style="endArrow=classic;html=1;rounded=0;entryX=0.493;entryY=0.765;entryDx=0;entryDy=0;entryPerimeter=0;" edge="1" parent="1">
          <mxGeometry width="50" height="50" relative="1" as="geometry">
            <mxPoint x="312" y="-404.63" as="sourcePoint" />
            <mxPoint x="372.3100000000002" y="-404.5300000000001" as="targetPoint" />
          </mxGeometry>
        </mxCell>
        <mxCell id="CNqWCXkzFUm2wQk2d3Os-33" value="" style="endArrow=classic;html=1;rounded=0;" edge="1" parent="1">
          <mxGeometry width="50" height="50" relative="1" as="geometry">
            <mxPoint x="312" y="-430" as="sourcePoint" />
            <mxPoint x="390" y="-580" as="targetPoint" />
          </mxGeometry>
        </mxCell>
        <mxCell id="CNqWCXkzFUm2wQk2d3Os-34" value="" style="endArrow=classic;html=1;rounded=0;entryX=0;entryY=0.5;entryDx=0;entryDy=0;" edge="1" parent="1" target="CNqWCXkzFUm2wQk2d3Os-24">
          <mxGeometry width="50" height="50" relative="1" as="geometry">
            <mxPoint x="130" y="-550" as="sourcePoint" />
            <mxPoint x="200" y="-600" as="targetPoint" />
            <Array as="points">
              <mxPoint x="130" y="-601" />
            </Array>
          </mxGeometry>
        </mxCell>
        <mxCell id="CNqWCXkzFUm2wQk2d3Os-35" value="" style="endArrow=classic;html=1;rounded=0;entryX=0;entryY=0.5;entryDx=0;entryDy=0;exitX=0.5;exitY=1;exitDx=0;exitDy=0;" edge="1" parent="1" source="CNqWCXkzFUm2wQk2d3Os-20">
          <mxGeometry width="50" height="50" relative="1" as="geometry">
            <mxPoint x="132" y="-339" as="sourcePoint" />
            <mxPoint x="252" y="-390" as="targetPoint" />
            <Array as="points">
              <mxPoint x="132" y="-390" />
            </Array>
          </mxGeometry>
        </mxCell>
        <mxCell id="CNqWCXkzFUm2wQk2d3Os-38" value="Direkte Absprache mit Team (Trello)" style="text;html=1;strokeColor=none;fillColor=none;align=center;verticalAlign=middle;whiteSpace=wrap;rounded=0;" vertex="1" parent="1">
          <mxGeometry x="392.15" y="-360" width="90" height="30" as="geometry" />
        </mxCell>
        <mxCell id="CNqWCXkzFUm2wQk2d3Os-39" value="" style="shape=image;verticalLabelPosition=bottom;labelBackgroundColor=default;verticalAlign=top;aspect=fixed;imageAspect=0;image=data:image/png,iVBORw0KGgoAAAANSUhEUgAAANUAAADsCAMAAADU6xPUAAAAflBMVEX///8AAAClpaX5+fny8vLBwcH29vawsLC3t7ezs7NKSkr19fVpaWkeHh78/PzMzMza2tpSUlIyMjJjY2NxcXEQEBBXV1ebm5uRkZHl5eV+fn56enrr6+uFhYVPT09AQEAmJiYXFxcsLCze3t7S0tLIyMiNjY03NzdERESYmJhcxjoZAAAI+ElEQVR4nN1d2WLiMAwMAQqlQChnaYGSpRf//4NLOFqOZCQ7sWQzj7s0aFBsyzqjSAytptx3ySGudevaMlSPuFar3Z+6Mlb3p649q7tT15FVrdvXlqRKnFjdl7r+WN3T6jpjdUfqumB1N+q6ZHUv6rpmdR/qumF1F+rKYVUbBX925bEKX135rEJfXQWsAldXIaug1VXMKmR1IVbhqguyClZdBKtA1dUiWAWjrsbmsz1bvo5W78PhsEey8l5d8+Z2/E3TCEddi+ayY8HnCB8tw8bj2J6Qn+r6+FqXppTBo9WVvFXC6AA/1DV4rZBSBn11PcT/KuaUQVddg/LbQz4U1dV8d8Qpg5K6WqlDTjuMFNTVmrjllEFaXW2GWVcBRNWV2Nh4dmhLcVpMxTjVarEQqRdBTquGDKdEYJP4RUuGU9/VoZuHZyFFfQpyklJUVKVdTkFKUZtqrk88SCmK8nxVCSlFRV1BUlKKagi+fWKK+pDjJKYohtu1MkylFBV9yZESU1RUjTkxYVhaYisqip5LUHnvblvJYLH3x9Inw6MYp8jWM/H80pxfPIhiJaiovtX18Dke3D6KYCW3oqL+0JzSuJl/K4es5LY+G011i/0niJXgijJeU//iB/CwYlaCK2qHlRGn0Qd+WiErUUWZ2bPjOfW4AlayioqWJpwW9PPyWckqyuQ6NSL1VPRAya0vQ8LmNCTW0wk5rIQVFS3YpNheyBtW0oqKIu4l0UCya1bSioqiEZOUiRP8kpXw1ncrQCF+jCS7eKi8oqINj9SL2VPPWE2f3AgOwfOkJ4ZP/WOloCjm3XfIOHcvcWIlv/VlaHJIjcyfe2QlFmW7wAOH1NLiwbGeong27czmwbGaonjvn91lPNbZ+vZgkLL8wWNBz8QVGNcPrbfIHnNXr58q6NRSq41CF3TY12ZL10ZKkbI4fNVBBnSG2hLagHz/lAyDUiBvVUwHhV+gSAW4/dGqWmkLaAVKVWpGXBk8EqT8yJw3BZGUHuJJRftq1YsBrEAknQZo00akB/pbWz47ELm0OcHrEIBJdbXFswNxBTH2/fkB7FgK8VK1Qx+rKkRTfYf2PaqKCFcFuqrwCzjWFs8S2F8b6FmFk+/ftaWzBVRVeK7aA3DAVFs6W8Cr/au2dLaAl5Ag/UoZEKmJtnC2GCBWodoVeFkF+wLCRARt4ayBnEuBXhejqI5UFaYTJiKKkFhJmj4CBa1SbeGsgaL2wS4rWLIjVQNfPVDaXLCnFbSXAnHDPGySZHAhK8obCcIIXMyOJTq95eb3H9HGPlUUlon6xT3++eQ4Qk4z/03bG5/zcX9Dtq33W2CO8G/7/0DBEN+DprlB3/0LhvxLnvvMCvwtmfsI3UM8d9oW1VzWsdPC71yEwn3uK4p+ACttuTGKK0mL1eg9K2A+NCPQ2Mtv0wLcoL6itPg/19qCQ4D2klNksv/TFhwCxNx6iJXfmZsg8XkSrq7A5j2J0uL/XGsLDgGq6dNw90DgxuyFe16Bl2wI2yJoCw4B5H6HdiDq66AOIPc0WJu9AeQew/vVhn64GpAX6S3YuzDKqH2BfgufIyLIixQH62NC71gb+gN9zvZGu9wHXHU+B3pQhHSO8838dVzACGmEowf+xkRgllKEmy7567xFVS1Z8REaxOBvwiOSOku9QgfWWln2YqCrRvaGwRi+r5YgsgL3u8ET+oCvKY8wp3Z/1UCt/n1dWGhZrfefgHUHqrIXA2nikE4Bc878DPbAJgiH4whuF4bdiYQwQyIfTAdoM61VpS8CbKx5HAsGWzr6eB+GL+CprBnq80tV/nzAwr5TBTpMvPVxF4TyDlif8s95gYuAfz8GT6xnRfnzAeuq/uwGXFTmWz4nLgL+s/FwEzDfaipwt/gzfzNuVu6XYxqXwJ0nlOGGMX7ZF7gNx7kLE/o2POssYCAqLtf0SVlYVZceTKITnT8ri6hsvjpc8Yf9cU0TXRCuPk30ovPFf0E0rLj+9YlmdL4YGER34RuDgehG54c1SLSB6dz8AdW5UoHDLYhGvDk/fYr/wge7iZiskxfCoVpn6UcS8D0wPypAnAS1ifqYcKq7eq6A1HBJ7bIlalTfNvevCGNQqan1L8hGvAXWKjkJVPP+SI4sKDJWqZVV6ykuLXI2eKFs0IWWQc/EIEcWgJaN1J+qnVr0DDjwx9gtk0EnUkxP64OBNnrclYZBSDcXxonP1PFdMx93UB6MYZFEQIox80DadGL80lRIlDMfQJYWgxTtgaCajmaQfAk5s0oZRg9nPKPclsEZPs05RVnTlKQ2eNYAVpZThfUkmeOYNaOemXFKtFM9YCpgE7ImO3FLtckryR491xb8gjeDi+0uZ05fc5sOxBqsY7QfMwcKu8wHYg6pNwrG07Mq9pi4OpAHzAlwtx5ABNYIogxu9kL28GnDsAZzXNkOn5VzSlLudxunuNBXrROm1YYWGtxJfVbbFesEPGBZXTCyb/C1VsFCk+Gus4rOZIMxpbb+SeZGeORVXl99E06G298ZzMZbL8utr4bBu1crU8xcR4mgOZja74cf/D1ij16JV+MpNfuu3Qq2sQ4XW96EyD+kpSpYGqZft3s1tmanyHxmPpx+UrL9VSM1/srdL/na5H3t0+eSOxz34vmle3o9Ga6tE4avjxu03fc37VdzJe3Rq6CAqm62E15SG7+0k8XlL9tYJO3tuMxDqznzzQbI56I3/OmsOj9DS8Wfw/qcuobRCHnHqDDiaXZAukSliWJ8C94tKnYq8O9bLlF5ycCDka3rBB0XCX3sa7cjOKqCYDrUHMFZyKLO8uo6wdRl7i/LB+8Ajrs3LDiBoKqxcp9KygnbVQuRTKMHRuy4QoylErQHJSxuQwwly0WlLCjpNDcy56kCKIyTrbs25F90ylOc8lLitEecOqE0iZWTfJvV2/IdH0oC5kSNiSGW3tRRNg39yYWY+qCmP9Rb5Q3EVcufOq9fPLTL+KK6bX+bPw1mNptHZ6tfrkGg/xF3+c7MdDT7UC/V4OIpid8ol2/nLU4CGe1xgf4meYy/xt3V9zrNQkaTdP296o6/4scERhZK4z/u8nWGiIv2RgAAAABJRU5ErkJggg==;" vertex="1" parent="1">
          <mxGeometry x="350" y="-271.52" width="33" height="36.56" as="geometry" />
        </mxCell>
        <mxCell id="CNqWCXkzFUm2wQk2d3Os-40" value="" style="endArrow=none;html=1;rounded=0;exitX=1;exitY=0.5;exitDx=0;exitDy=0;entryX=0.5;entryY=1;entryDx=0;entryDy=0;" edge="1" parent="1" source="CNqWCXkzFUm2wQk2d3Os-39" target="CNqWCXkzFUm2wQk2d3Os-18">
          <mxGeometry width="50" height="50" relative="1" as="geometry">
            <mxPoint x="530" y="-250" as="sourcePoint" />
            <mxPoint x="580" y="-300" as="targetPoint" />
            <Array as="points">
              <mxPoint x="607" y="-253" />
            </Array>
          </mxGeometry>
        </mxCell>
        <mxCell id="CNqWCXkzFUm2wQk2d3Os-42" value="" style="endArrow=classic;html=1;rounded=0;entryX=0;entryY=0.5;entryDx=0;entryDy=0;exitX=0;exitY=0.5;exitDx=0;exitDy=0;" edge="1" parent="1" source="CNqWCXkzFUm2wQk2d3Os-39" target="CNqWCXkzFUm2wQk2d3Os-19">
          <mxGeometry width="50" height="50" relative="1" as="geometry">
            <mxPoint x="110" y="-270" as="sourcePoint" />
            <mxPoint x="160" y="-320" as="targetPoint" />
            <Array as="points">
              <mxPoint x="50" y="-253" />
              <mxPoint x="50" y="-493" />
            </Array>
          </mxGeometry>
        </mxCell>
      </root>
    </mxGraphModel>
  </diagram>
</mxfile>
